<svg width="720" height="512" viewBox="0 0 720 512" fill="none" xmlns="http://www.w3.org/2000/svg">
<ellipse cx="306" cy="202.5" rx="178" ry="178.5" fill="#007BA2"/>
<path d="M189.093 275.8C182.693 275.8 177.293 273.667 172.893 269.4C168.493 265.133 166.293 259.733 166.293 253.2C166.293 246.533 168.426 241.133 172.693 237C177.093 232.867 182.559 230.8 189.093 230.8C195.759 230.8 201.226 232.867 205.493 237C209.759 241.133 211.893 246.533 211.893 253.2C211.893 259.733 209.693 265.133 205.293 269.4C201.026 273.667 195.626 275.8 189.093 275.8ZM336.113 244.08H270.993L258.893 274H214.453L282.433 120H325.333L393.533 274H348.213L336.113 244.08ZM323.353 211.96L303.553 162.68L283.753 211.96H323.353ZM435.986 276.016C427.826 276.016 419.906 275.008 412.226 272.992C404.546 270.976 398.306 268.288 393.506 264.928L402.866 243.904C407.378 246.88 412.61 249.28 418.562 251.104C424.514 252.928 430.37 253.84 436.13 253.84C447.074 253.84 452.546 251.104 452.546 245.632C452.546 242.752 450.962 240.64 447.794 239.296C444.722 237.856 439.73 236.368 432.818 234.832C425.234 233.2 418.898 231.472 413.81 229.648C408.722 227.728 404.354 224.704 400.706 220.576C397.058 216.448 395.234 210.88 395.234 203.872C395.234 197.728 396.914 192.208 400.274 187.312C403.634 182.32 408.626 178.384 415.25 175.504C421.97 172.624 430.178 171.184 439.874 171.184C446.498 171.184 453.026 171.952 459.458 173.488C465.89 174.928 471.554 177.088 476.45 179.968L467.666 201.136C458.066 195.952 448.754 193.36 439.73 193.36C434.066 193.36 429.938 194.224 427.346 195.952C424.754 197.584 423.458 199.744 423.458 202.432C423.458 205.12 424.994 207.136 428.066 208.48C431.138 209.824 436.082 211.216 442.898 212.656C450.578 214.288 456.914 216.064 461.906 217.984C466.994 219.808 471.362 222.784 475.01 226.912C478.754 230.944 480.626 236.464 480.626 243.472C480.626 249.52 478.946 254.992 475.586 259.888C472.226 264.784 467.186 268.72 460.466 271.696C453.746 274.576 445.586 276.016 435.986 276.016ZM584.805 274L584.517 220.576L558.597 264.064H545.925L520.149 222.016V274H493.797V173.2H517.269L552.693 231.376L587.253 173.2H610.725L611.013 274H584.805Z" fill="#A661FF"/>
<path d="M6.53434 486.856L25.1422 505.464C33.8539 514.175 48.0289 514.177 56.7436 505.464C66.4816 495.725 148.873 413.335 158.403 403.803C163.67 398.537 166.048 390.935 164.432 383.327L184.788 362.971C215.344 386.688 252.277 401.35 291.056 404.818C295.186 405.192 298.827 402.14 299.195 398.014C299.564 393.888 296.519 390.244 292.392 389.874C248.582 385.957 207.398 366.623 176.388 335.613C103.191 262.411 102.754 143.565 176.388 69.9318C249.635 -3.31618 368.822 -3.31618 442.069 69.9318C515.317 143.18 515.317 262.365 442.069 335.613C410.987 366.695 369.788 385.965 326.064 389.874C321.937 390.244 318.891 393.888 319.26 398.014C319.61 401.914 322.881 404.849 326.723 404.849C326.947 404.849 327.173 404.839 327.4 404.819C374.623 400.596 419.113 379.786 452.679 346.223C531.776 267.124 531.776 138.422 452.679 59.3237C373.579 -19.7746 244.877 -19.7746 165.779 59.3237C91.3987 133.704 88.0131 249.067 148.997 327.245L128.687 347.555C121.179 345.958 113.567 348.227 108.197 353.597L6.53334 455.257C-2.17845 463.969 -2.17745 478.145 6.53434 486.856ZM158.688 338.769C163.256 343.815 168.045 348.618 173.237 353.304L156.371 370.169L141.829 355.627L158.688 338.769ZM118.803 364.204C121.72 361.288 126.367 361.391 129.177 364.196C129.18 364.199 129.184 364.201 129.187 364.204L147.794 382.812C147.795 382.814 147.797 382.815 147.798 382.817C150.653 385.681 150.656 390.332 147.793 393.194L131.771 409.216L102.781 380.227L118.803 364.204ZM17.1425 465.865L35.7503 505.464L121.162 419.826L46.1335 494.855C43.2699 497.718 38.6119 497.718 35.7503 494.855L17.1425 476.247C14.2809 473.385 14.2809 468.727 17.1425 465.865Z" fill="black"/>
<path d="M473.18 178.933L472.685 179L473.18 178.933C468.232 142.234 452.014 108.956 426.275 82.6987C361.599 16.7124 256.924 16.7169 192.253 82.6987C127.739 148.52 127.739 255.612 192.253 321.431C256.771 387.257 361.757 387.257 426.275 321.431C453.903 293.245 470.904 255.871 474.15 216.191C474.505 211.862 478.227 208.672 482.451 209.019C486.674 209.379 489.828 213.167 489.473 217.5C485.925 260.88 467.339 301.737 437.143 332.545C401.886 368.516 355.576 386.5 309.266 386.5C262.956 386.5 216.646 368.516 181.388 332.545C110.871 260.601 110.871 143.532 181.388 71.5854C252.074 -0.53124 366.463 -0.525684 437.143 71.5854C465.273 100.285 483.002 136.662 488.411 176.79C488.992 181.096 486.042 185.053 481.843 185.642C477.653 186.223 473.759 183.237 473.18 178.933Z" fill="black" stroke="black"/>
<path d="M419.713 119.697C412.593 98.3087 397.032 79.8982 375.868 67.821C354.704 55.7438 329.345 50.804 304.413 53.9018L311.198 96.7407C324.533 95.0838 338.097 97.7259 349.416 104.185C360.736 110.645 369.059 120.492 372.867 131.932L419.713 119.697Z" fill="#6CBED8"/>
</svg>
